<?xml version="1.0" encoding="UTF-8"?>
<svg xmlns="http://www.w3.org/2000/svg" xmlns:xlink="http://www.w3.org/1999/xlink" viewBox="0 0 250 250" width="250px" height="250px">
<g id="surface102345888">
<path style=" stroke:none;fill-rule:evenodd;fill:rgb(41.568628%,75.686276%,100%);fill-opacity:1;" d="M 125.21875 21 C 182.628906 21 229.167969 67.535156 229.167969 124.949219 C 229.167969 182.355469 182.628906 228.894531 125.21875 228.894531 C 67.8125 228.894531 21.269531 182.359375 21.269531 124.949219 C 21.277344 67.535156 67.8125 21 125.21875 21 Z M 125.21875 21 "/>
<path style=" stroke:none;fill-rule:nonzero;fill:rgb(100%,100%,100%);fill-opacity:1;" d="M 190.421875 65.488281 C 185.714844 47.027344 155.105469 40.957031 126.136719 51.25 C 108.894531 57.375 90.230469 66.988281 76.808594 79.542969 C 60.847656 94.46875 58.308594 107.457031 59.355469 112.886719 C 63.050781 132.035156 89.296875 144.558594 100.082031 153.847656 L 100.082031 153.90625 C 96.902344 155.472656 73.621094 167.253906 68.171875 179.300781 C 62.421875 192.011719 69.089844 201.128906 73.5 202.359375 C 87.171875 206.160156 101.199219 199.324219 108.738281 188.078125 C 116.015625 177.222656 115.410156 163.214844 112.25 156.238281 C 116.609375 155.089844 121.699219 154.574219 128.15625 155.328125 C 146.390625 157.457031 149.96875 168.84375 149.28125 173.609375 C 148.597656 178.375 144.769531 180.996094 143.496094 181.785156 C 142.214844 182.578125 141.828125 182.855469 141.933594 183.4375 C 142.089844 184.292969 142.675781 184.261719 143.769531 184.078125 C 145.269531 183.824219 153.34375 180.203125 153.691406 171.40625 C 154.128906 160.238281 143.433594 147.75 124.484375 148.074219 C 116.683594 148.207031 111.777344 148.949219 108.230469 150.269531 C 107.96875 149.972656 107.699219 149.675781 107.425781 149.378906 C 95.714844 136.878906 74.058594 128.042969 74.972656 111.238281 C 75.308594 105.128906 77.433594 89.046875 116.582031 69.535156 C 148.65625 53.550781 174.332031 57.953125 178.769531 67.699219 C 185.109375 81.625 165.046875 107.503906 131.738281 111.238281 C 119.046875 112.660156 112.363281 107.746094 110.703125 105.910156 C 108.953125 103.984375 108.691406 103.894531 108.042969 104.261719 C 106.980469 104.847656 107.652344 106.550781 108.042969 107.566406 C 109.035156 110.15625 113.121094 114.746094 120.074219 117.03125 C 126.191406 119.042969 141.09375 120.140625 159.113281 113.171875 C 179.292969 105.359375 195.050781 83.640625 190.421875 65.488281 Z M 104.5625 159.574219 C 106.074219 165.167969 105.90625 170.386719 104.347656 175.109375 C 104.175781 175.636719 103.984375 176.152344 103.777344 176.667969 C 103.566406 177.175781 103.34375 177.6875 103.105469 178.1875 C 101.902344 180.6875 100.28125 183.027344 98.300781 185.1875 C 92.261719 191.777344 83.824219 194.265625 80.207031 192.167969 C 76.300781 189.902344 78.261719 180.613281 85.261719 173.207031 C 92.792969 165.246094 103.628906 160.125 103.628906 160.125 L 103.613281 160.09375 C 103.925781 159.921875 104.246094 159.75 104.5625 159.574219 Z M 104.5625 159.574219 "/>
</g>
</svg>
